<?xml version="1.0" ?><svg enable-background="new 0 0 64 64" id="Layer_1" version="1.1" viewBox="0 0 64 64" xml:space="preserve" xmlns="http://www.w3.org/2000/svg" xmlns:xlink="http://www.w3.org/1999/xlink"><g><path d="M60.3496094,17.6196289C59.9726563,17.2241211,59.4492188,17,58.9023438,17H47v-2c0-7.7197266-6.2802734-14-14-14h-2   c-7.7197266,0-14,6.2802734-14,14v2H5.0976563c-0.546875,0-1.0703125,0.2241211-1.4472656,0.6196289   c-0.3779297,0.3959961-0.5761719,0.9291992-0.5507813,1.4755859l1.8183594,38.1899414   C5.0712891,60.4902344,7.703125,63,10.9111328,63h42.1777344c3.2080078,0,5.8398438-2.5097656,5.9931641-5.7148438   l1.8183594-38.1899414C60.9257813,18.5488281,60.7275391,18.015625,60.3496094,17.6196289z M21,15c0-5.5141602,4.4863281-10,10-10   h2c5.5136719,0,10,4.4858398,10,10v2H21V15z M55.0859375,57.0957031C55.0351563,58.1630859,54.1582031,59,53.0888672,59H10.9111328   c-1.0693359,0-1.9462891-0.8369141-1.9970703-1.9042969L7.1953125,21H17v7c0,1.1044922,0.8955078,2,2,2s2-0.8955078,2-2v-7h22v7   c0,1.1044922,0.8955078,2,2,2s2-0.8955078,2-2v-7h9.8046875L55.0859375,57.0957031z"/><path d="M20.109375,35.3398438C20,35.2695313,19.8896484,35.2001953,19.7695313,35.1494141   c-0.1298828-0.0498047-0.25-0.0898438-0.3798828-0.109375c-0.6494141-0.1298828-1.3398438,0.0800781-1.7998047,0.5498047   C17.2099609,35.9599609,17,36.4697266,17,37c0,0.2695313,0.0498047,0.5195313,0.1494141,0.7695313   c0.1005859,0.2402344,0.25,0.4599609,0.4404297,0.640625c0.1796875,0.1894531,0.4003906,0.3398438,0.6396484,0.4394531   C18.4794922,38.9501953,18.7294922,39,19,39c0.5302734,0,1.0400391-0.2099609,1.4101563-0.5898438   c0.1894531-0.1806641,0.3398438-0.4003906,0.4394531-0.640625C20.9501953,37.5195313,21,37.2695313,21,37   c0-0.5302734-0.2099609-1.0400391-0.5898438-1.4101563C20.3193359,35.4902344,20.2197266,35.4101563,20.109375,35.3398438z"/><path d="M46.8496094,36.2294922C46.7998047,36.109375,46.7294922,36,46.6601563,35.8896484   c-0.0703125-0.109375-0.1503906-0.2099609-0.25-0.2998047c-0.4599609-0.4697266-1.1503906-0.6796875-1.8007813-0.5498047   c-0.1298828,0.0195313-0.2597656,0.0595703-0.3798828,0.109375C44.109375,35.2001953,44,35.2695313,43.8896484,35.3398438   c-0.109375,0.0703125-0.2099609,0.1503906-0.2998047,0.25c-0.0996094,0.0898438-0.1796875,0.1904297-0.25,0.2998047   C43.2597656,36,43.2001953,36.109375,43.1494141,36.2294922c-0.0498047,0.1298828-0.0898438,0.25-0.109375,0.3798828   C43.0097656,36.7402344,43,36.8701172,43,37c0,0.2695313,0.0498047,0.5195313,0.1494141,0.7695313   c0.1005859,0.2402344,0.25,0.4599609,0.4404297,0.640625c0.0898438,0.0996094,0.1904297,0.1796875,0.2998047,0.25   C44,38.7402344,44.109375,38.7998047,44.2294922,38.8496094s0.25,0.0898438,0.3798828,0.1103516   C44.7402344,38.9902344,44.8701172,39,45,39s0.2597656-0.0097656,0.3896484-0.0400391   c0.1298828-0.0205078,0.2597656-0.0605469,0.3798828-0.1103516C45.8798828,38.7998047,46,38.7402344,46.109375,38.6601563   c0.1103516-0.0703125,0.2099609-0.1503906,0.3007813-0.25c0.1894531-0.1806641,0.3398438-0.4003906,0.4394531-0.640625   C46.9501953,37.5195313,47,37.2695313,47,37c0-0.1298828-0.0205078-0.2597656-0.0400391-0.390625   C46.9296875,36.4794922,46.8994141,36.359375,46.8496094,36.2294922z"/><path d="M39,44h-7c-1.1044922,0-2,0.8955078-2,2s0.8955078,2,2,2h4.5820313C35.8095703,49.7646484,34.0458984,51,32,51   c-2.7568359,0-5-2.2431641-5-5c0-1.1044922-0.8955078-2-2-2s-2,0.8955078-2,2c0,4.9628906,4.0371094,9,9,9s9-4.0371094,9-9   C41,44.8955078,40.1044922,44,39,44z"/></g></svg>