<?xml version="1.0" ?><svg id="Layer_5" style="enable-background:new 0 0 62 62;" version="1.1" viewBox="0 0 62 62" xml:space="preserve" xmlns="http://www.w3.org/2000/svg" xmlns:xlink="http://www.w3.org/1999/xlink"><g><g><g><rect height="16" style="fill:#D3A06C;" width="20" x="35" y="45"/></g><g><circle cx="25" cy="43" r="2" style="fill:#FF826E;"/></g><g><circle cx="17" cy="43" r="2" style="fill:#FF826E;"/></g><g><circle cx="9" cy="43" r="2" style="fill:#FF826E;"/></g><g><path d="M46.99,5h-5.87c-1.21,0-2.34,0.41-3.25,1.12C36.97,6.82,36.3,7.82,36,9c-2.76,0-5,2.24-5,5v1.97     c0,1.39,0.28,2.74,0.81,3.98c-0.5,0.53-0.81,1.26-0.81,2.06c0,0.83,0.34,1.57,0.88,2.11c0.54,0.54,1.28,0.88,2.11,0.88H34h1.04     h0.01c0.15,1.76,0.75,3.42,1.69,4.85c0.27,0.4,0.56,0.79,0.88,1.15H19v4.15c0,1.02-0.83,1.85-1.85,1.85     c-0.71,0-1.35-0.4-1.66-1.02L13,31H7.37c-1.92,0-3.54-1.44-3.76-3.35L1.02,5.22C1.01,5.07,1,4.93,1,4.78C1,2.69,2.69,1,4.78,1     h38.44c1.04,0,1.99,0.42,2.67,1.11C46.58,2.79,47,3.74,47,4.78C47,4.86,47,4.93,46.99,5z" style="fill:#E6E9ED;"/></g><g><rect height="8" style="fill:#F0D0B4;" width="14" x="9" y="11"/></g><g><rect height="4" style="fill:#AAB2BD;" width="6" x="13" y="15"/></g><g><polygon points="25,11 23,11 9,11 7,11 16,5    " style="fill:#FF826E;"/></g><g><path d="M44.44,16c0.05,0.58,0.02,1.16-0.13,1.74L44,19l-0.76-0.76C41.77,16.77,39.97,15.66,38,15     c-1.74,0.58-2.93,2.18-3,4h-1c-0.86,0-1.64,0.36-2.19,0.95C31.28,18.71,31,17.36,31,15.97V14c0-2.76,2.24-5,5-5     c0.3-1.18,0.97-2.18,1.87-2.88C38.78,5.41,39.91,5,41.12,5h5.87h1.38C54.24,5,59,9.76,59,15.63c0,1.47-0.31,2.92-0.88,4.25     C57.58,19.34,56.83,19,56,19h-1l-0.25-0.15C51.64,16.99,48.09,16,44.46,16H44.44z" style="fill:#656D78;"/></g><g><path d="M32,50c-0.35,0-0.69,0.06-1,0.18v-0.01V48c0-4.2,2.63-7.96,6.58-9.39L42,37l3,6l3-6l4.42,1.61     C56.37,40.04,59,43.8,59,48v2.17v0.01C58.69,50.06,58.35,50,58,50h-1c-1.1,0-2,0.9-2,2v-7H43h-4h-4v7c0-1.1-0.9-2-2-2H32z" style="fill:#5CD6B3;"/></g><g><rect height="8" style="fill:#B27946;" width="4" x="39" y="45"/></g><g><path d="M29,55v-2c0-1.31,0.83-2.42,2-2.82c0.31-0.12,0.65-0.18,1-0.18h1c1.1,0,2,0.9,2,2v2v2     c0,1.1-0.9,2-2,2h-1C30.34,58,29,56.66,29,55z" style="fill:#F0D0B4;"/></g><g><path d="M61,53v2c0,1.66-1.34,3-3,3h-1c-1.1,0-2-0.9-2-2v-2v-2c0-1.1,0.9-2,2-2h1c0.35,0,0.69,0.06,1,0.18     C60.17,50.58,61,51.69,61,53z" style="fill:#F0D0B4;"/></g><g><path d="M59,22.01c0,1.65-1.34,2.99-2.98,2.99H56h-1.04h-0.01c0.04-0.32,0.05-0.64,0.05-0.96V19h1     c0.83,0,1.58,0.34,2.12,0.88C58.66,20.42,59,21.18,59,22.01z" style="fill:#F0D0B4;"/></g><g><path d="M55,19v5.04c0,0.32-0.01,0.64-0.05,0.96c-0.34,3.83-2.76,7.21-6.34,8.74     C48.24,33.9,48,34.26,48,34.66V37l-3,6l-3-6v-2.34c0-0.4-0.24-0.76-0.61-0.92c-1.48-0.63-2.76-1.58-3.77-2.74     c-0.32-0.36-0.61-0.75-0.88-1.15c-0.94-1.43-1.54-3.09-1.69-4.85C35.01,24.68,35,24.36,35,24.04v-4.88c0-0.05,0-0.11,0-0.16     c0.07-1.82,1.26-3.42,3-4c1.97,0.66,3.77,1.77,5.24,3.24L44,19l0.31-1.26c0.15-0.58,0.18-1.16,0.13-1.74h0.02     c3.63,0,7.18,0.99,10.29,2.85L55,19z" style="fill:#F0D0B4;"/></g><g><path d="M35,24.04c0,0.32,0.01,0.64,0.05,0.96h-0.01H34h-0.01c-0.83,0-1.57-0.34-2.11-0.88     C31.34,23.58,31,22.84,31,22.01c0-0.8,0.31-1.53,0.81-2.06C32.36,19.36,33.14,19,34,19h1c0,0.05,0,0.11,0,0.16V24.04z" style="fill:#F0D0B4;"/></g></g><g><circle cx="50.001" cy="21" r="1"/><circle cx="40.001" cy="21" r="1"/><path d="M60,49.556v-1.552c0-4.608-2.91-8.763-7.241-10.338L49.002,36.3l0.001-1.641c3.643-1.561,6.174-4.844,6.827-8.659h0.186    c2.197,0,3.985-1.788,3.985-3.985c0-0.867-0.282-1.666-0.75-2.323C59.738,18.39,60,17.029,60,15.63C60,9.217,54.783,4,48.37,4    h-0.449c-0.376-2.264-2.334-4-4.703-4H4.782C2.146,0,0,2.146,0,4.782C0,4.966,0.011,5.149,0.032,5.33L2.62,27.767    C2.899,30.18,4.941,32,7.371,32h5.011l2.211,4.422C15.08,37.396,16.058,38,17.146,38C18.72,38,20,36.72,20,35.146V32h17.183    c1.059,1.113,2.344,2.029,3.815,2.659l0.001,1.641l-3.757,1.366c-4.331,1.575-7.241,5.729-7.241,10.338v1.552    C28.811,50.249,28,51.525,28,53v2c0,2.206,1.794,4,4,4h1c0.352,0,0.686-0.072,1-0.184V62h22v-3.184C56.314,58.928,56.648,59,57,59    h1c2.206,0,4-1.794,4-4v-2C62,51.526,61.19,50.25,60,49.556z M52.075,39.545C55.619,40.834,58,44.233,58,48.004V49h-1    c-0.352,0-0.686,0.072-1,0.184V44H45.618l2.879-5.756L52.075,39.545z M56.002,24L56,20c1.103,0,2.001,0.903,2.001,2.015    C58.001,23.109,57.111,23.999,56.002,24z M58,15.63c0,0.927-0.139,1.833-0.398,2.711C57.111,18.125,56.57,18,56,18h-0.08    c-0.488-3.386-3.401-6-6.92-6v2c2.088,0,3.881,1.286,4.628,3.107c-2.61-1.267-5.461-1.974-8.368-2.085    c-0.266-1.018-0.791-1.967-1.553-2.73l-1.414,1.414c0.875,0.876,1.291,2.119,1.138,3.334c-1.475-1.334-3.229-2.361-5.114-2.99    L38,13.946l-0.316,0.105c-1.825,0.608-3.139,2.127-3.542,3.948h-0.14c-0.598,0-1.16,0.141-1.67,0.378    C32.118,17.597,32,16.794,32,15.975V14c0-2.206,1.794-4,4-4h0.78l0.189-0.758C37.447,7.333,39.155,6,41.123,6h7.247    C53.68,6,58,10.32,58,15.63z M33.986,24c-1.095,0-1.985-0.891-1.985-1.985c0-1.111,0.896-2.013,1.999-2.014l-0.001,4H33.986z     M18,30v5.146C18,35.616,17.616,36,17.146,36c-0.325,0-0.618-0.181-0.764-0.473L13.618,30H7.371c-1.413,0-2.602-1.06-2.765-2.463    L2.019,5.101C2.007,4.995,2,4.89,2,4.782C2,3.248,3.248,2,4.782,2h38.436c1.261,0,2.316,0.848,2.656,2h-4.751    c-2.636,0-4.954,1.631-5.87,4.046C32.296,8.415,30,10.944,30,14v1.975c0,1.307,0.239,2.58,0.683,3.801    c-0.43,0.64-0.682,1.41-0.682,2.239c0,2.197,1.788,3.985,4,3.985h0.17c0.245,1.43,0.754,2.783,1.487,4H18z M35.999,24.043    L36,19.162c0-1.352,0.798-2.559,2.016-3.098c1.688,0.617,3.242,1.607,4.514,2.879l2.012,2.012l0.744-2.969    c0.079-0.315,0.121-0.634,0.147-0.953c3.014,0.155,5.951,1.025,8.568,2.544l0.002,4.464c0.002,3.826-2.27,7.272-5.785,8.779    c-0.737,0.315-1.214,1.036-1.214,1.837l-0.002,2.107L45,40.765l-2-4.001l-0.002-2.106c0-0.802-0.477-1.522-1.213-1.837    C38.27,31.314,35.998,27.869,35.999,24.043z M37.926,39.545l3.578-1.301L44.382,44H34v5.184C33.686,49.072,33.352,49,33,49h-0.999    v-0.996C32.001,44.233,34.382,40.834,37.926,39.545z M40,46h2v6h-2V46z M33,57h-1c-1.103,0-2-0.897-2-2v-2c0-1.103,0.897-2,2-2h1    c0.552,0,1,0.448,1,1v1h-2v2h2v1C34,56.552,33.552,57,33,57z M54,60H36v-4v-4v-6h2v8h6v-8h10v6v4V60z M60,55c0,1.103-0.897,2-2,2    h-1c-0.552,0-1-0.448-1-1v-1h2v-2h-2v-1c0-0.552,0.448-1,1-1h1c1.103,0,2,0.897,2,2V55z"/><rect height="2" width="6" x="46" y="48"/><rect height="2" width="6" x="46" y="52"/><path d="M45,32c1.615,0,3.067-0.897,3.789-2.342l0.105-0.211l-1.789-0.895L47,28.764C46.619,29.526,45.853,30,45,30    s-1.619-0.474-2-1.236l-0.105-0.211l-1.789,0.895l0.105,0.211C41.933,31.103,43.385,32,45,32z"/><path d="M44.447,27.895l1.105-0.553c0.478-0.239,0.834-0.649,1.003-1.156s0.131-1.05-0.108-1.527L46,23.764V22h-2v2    c0,0.155,0.036,0.309,0.105,0.447l0.553,1.105l-1.105,0.553L44.447,27.895z"/><path d="M16,3.798L3.697,12H8v8h16v-8h4.303L16,3.798z M16,6.202L21.697,10H10.303L16,6.202z M18,18h-4v-2h4V18z M22,18h-2v-4h-8    v4h-2v-6h12V18z"/><rect height="2" width="2" x="8" y="22"/><rect height="2" width="2" x="8" y="26"/><rect height="2" width="12" x="12" y="22"/><rect height="2" width="12" x="12" y="26"/><path d="M17,40c-1.654,0-3,1.346-3,3s1.346,3,3,3s3-1.346,3-3S18.654,40,17,40z M17,44c-0.552,0-1-0.448-1-1s0.448-1,1-1    s1,0.448,1,1S17.552,44,17,44z"/><path d="M25,40c-1.654,0-3,1.346-3,3s1.346,3,3,3s3-1.346,3-3S26.654,40,25,40z M25,44c-0.552,0-1-0.448-1-1s0.448-1,1-1    s1,0.448,1,1S25.552,44,25,44z"/><path d="M9,40c-1.654,0-3,1.346-3,3s1.346,3,3,3s3-1.346,3-3S10.654,40,9,40z M9,44c-0.552,0-1-0.448-1-1s0.448-1,1-1s1,0.448,1,1    S9.552,44,9,44z"/></g></g></svg>